<svg stroke="#000" xmlns="http://www.w3.org/2000/svg" viewBox="0 0 319.93 199">
  <path fill="none" stroke-miterlimit="10" stroke-width="16" d="M190.22 112H214a39.49 39.49 0 0 1 39.5 39.5A39.49 39.49 0 0 1 214 191H111a39.49 39.49 0 0 1-39.5-39.5A39.49 39.49 0 0 1 111 112zM86.43 180.9H37.75A31.26 31.26 0 0 1 6.5 149.64a31.25 31.25 0 0 1 31.25-31.25h52.68M243.5 180.9h38.68a31.26 31.26 0 0 0 31.25-31.26 31.25 31.25 0 0 0-31.25-31.25H239.5"/>
  <rect fill="none" stroke-miterlimit="10" stroke-width="16" x="120.5" y="8" width="79" height="79" rx="39.5"/>
  <rect fill="none" stroke-miterlimit="10" stroke-width="16" x="45.27" y="36.1" width="62.51" height="62.51" rx="31.25"/>
  <rect fill="none" stroke-miterlimit="10" stroke-width="16" x="212.16" y="36.1" width="62.51" height="62.51" rx="31.25"/>
</svg>
