<svg xmlns="http://www.w3.org/2000/svg" viewBox="0 0 835.62 1018.93">
  <path d="M833.78 528.82c-14.43-148.28-114.9-280.44-250.92-339.39C536.05 169.14 484.71 154 433.9 152c-33.86-1.3-74.34-2.61-105.5 14.55-40.88 22.51-32.25 85.4-18.06 122 15.46 39.85 45 67.79 71.12 100.27 45.34 56.39 83.63 119.14 94.86 191.76 21.83 164.15-67.14 278.57-179.11 385.18 10.88 4.13 16.26 6.86 22 8.23 76.65 18.42 151.92 14.38 228.23-6.54 178.32-48.88 294.63-235 287.94-415.37q-.47-11.71-1.6-23.26m-458.42-58.53c-10.92-12.83-22.59-25-34.44-36.38-21.38-20.61-45.49-37.49-65.06-60.22-16.45-19.1-30.38-40.56-39.38-64.19-34.57-90.8 16.31-183.62 64.35-258.76 9.94-15.55 20.06-38.21 33.56-50.74-53.82 50-101.92 100.33-148.74 151.32-61.48 67-74.16 139-45.45 216.93 18.92 51.41 66.55 88.25 107.64 128.81 34.07 43.5 55.13 90.09 60.42 140.15 8 75.77-35.66 133.75-76.59 192.31q-67.47 96.54-140 189.41c52.93-28 96.43-70.54 141.77-109.67 48.54-41.89 100.1-80.6 144.21-127.13 28.31-29.86 43.9-63.8 55.26-103.35 9.25-32.19 8.56-66.75 1.25-99.44-9.16-40.83-31.65-77.13-58.8-109.05M73 958.13c12.22-9 22.67-24.24 29.07-31.48 46.75-52.9 84.45-110 121.3-167q5-7.68 9.76-15.42c20.67-33.36 34.5-73.08 28.07-113-6.26-38.88-29.85-77.47-54.09-107.79-1-1.28-2.06-2.56-3.1-3.82-25.28-30.6-59.77-51.83-81.68-85.26-55.34-84.47-61.54-169.25-13.39-256 6-10.83 13.29-21.27 20.07-31.87 6.63-10.35 13.36-20.67 20.05-31C85.77 175.35 16.42 231.79 3.13 311.4a203.3 203.3 0 0 0 8.94 103.17c11.68 32.43 31.84 62.9 57.2 90.77 7.34 8.06 15.14 15.9 23.27 23.55a222 222 0 0 1 19.72 20.33c8 9.64 13.74 20.33 19.9 30.67 8.33 14 16 28.08 21.44 42.82a227.2 227.2 0 0 1 11.85 46.08c5.72 39.19.36 78.81-12.93 116.92m-60.05 40.58c26.63-75.65 29.35-149-6.54-222.21-21.35-43.53-50.7-82.52-77.34-123 1.47 2.23-2.91 15.65-3.39 18.68Q3.45 510.8 2.29 522A430 430 0 0 0 0 565a441.95 441.95 0 0 0 73 244.45c5 7.45 8.75 13.84 16.75 18"/>
</svg>
